<svg id="Capa_1" data-name="Capa 1" xmlns="http://www.w3.org/2000/svg" viewBox="0 0 277.35 75.16"><defs><style>.cls-1{fill:none;}.cls-2{fill:#6f6f6e;}.cls-3{fill:#fff;}.cls-4{fill:#e42320;}.cls-5{fill:#e42622;}</style></defs><path class="cls-1" d="M-117.62-366.95" transform="translate(-6.65 -2)"/><path class="cls-1" d="M-117.62,474.94" transform="translate(-6.65 -2)"/><path class="cls-1" d="M477.66,474.94" transform="translate(-6.65 -2)"/><path class="cls-1" d="M477.66-366.95" transform="translate(-6.65 -2)"/><path class="cls-1" d="M-117.62-366.95" transform="translate(-6.65 -2)"/><path class="cls-1" d="M-117.62,474.94" transform="translate(-6.65 -2)"/><path class="cls-1" d="M477.66,474.94" transform="translate(-6.65 -2)"/><path class="cls-1" d="M477.66-366.95" transform="translate(-6.65 -2)"/><path class="cls-1" d="M-117.62-366.95" transform="translate(-6.65 -2)"/><path class="cls-1" d="M-117.62,474.94" transform="translate(-6.65 -2)"/><path class="cls-1" d="M477.66,474.94" transform="translate(-6.65 -2)"/><path class="cls-1" d="M477.66-366.95" transform="translate(-6.65 -2)"/><path class="cls-1" d="M-117.62-366.95" transform="translate(-6.65 -2)"/><path class="cls-1" d="M-117.62,474.94" transform="translate(-6.65 -2)"/><path class="cls-1" d="M477.66,474.94" transform="translate(-6.65 -2)"/><path class="cls-1" d="M477.66-366.95" transform="translate(-6.65 -2)"/><path class="cls-1" d="M-117.62-366.95" transform="translate(-6.65 -2)"/><path class="cls-1" d="M-117.62,474.94" transform="translate(-6.65 -2)"/><path class="cls-1" d="M477.66,474.94" transform="translate(-6.65 -2)"/><path class="cls-1" d="M477.66-366.95" transform="translate(-6.65 -2)"/><path class="cls-1" d="M-117.62-366.95" transform="translate(-6.65 -2)"/><path class="cls-1" d="M-117.62,474.94" transform="translate(-6.65 -2)"/><path class="cls-1" d="M477.66,474.94" transform="translate(-6.65 -2)"/><path class="cls-1" d="M477.66-366.95" transform="translate(-6.65 -2)"/><path class="cls-1" d="M-117.62-366.95" transform="translate(-6.65 -2)"/><path class="cls-1" d="M-117.62,474.94" transform="translate(-6.65 -2)"/><path class="cls-1" d="M477.66,474.94" transform="translate(-6.65 -2)"/><path class="cls-1" d="M477.66-366.95" transform="translate(-6.65 -2)"/><path class="cls-2" d="M51.71,4.5C31,4.5,14.16,20.61,14.16,40.41c0,19,15.44,34.5,34.92,35.8a19.87,19.87,0,0,1-2.55-5.29C31.16,68.54,19.38,55.76,19.38,40.41c0-17,14.5-30.92,32.33-30.92S84,23.36,84,40.41c0,14.71-10.81,27-25.22,30.15-.48,1.81-1.07,3.59-1.68,5.37C75.28,73.4,89.26,58.44,89.26,40.41c0-19.8-16.85-35.91-37.55-35.91" transform="translate(-6.65 -2)"/><path class="cls-1" d="M-117.62-398.28" transform="translate(-6.65 -2)"/><path class="cls-1" d="M-117.62,443.61" transform="translate(-6.65 -2)"/><path class="cls-1" d="M477.66,443.61" transform="translate(-6.65 -2)"/><path class="cls-1" d="M477.66-398.28" transform="translate(-6.65 -2)"/><line class="cls-3"/><path class="cls-4" d="M43,52.5a7.71,7.71,0,0,1-.3-1.68,2.82,2.82,0,0,0-1.23-2.21,16.35,16.35,0,0,1-1.88-2.29,15.8,15.8,0,0,1-1.09-1.58c-.43-.78-.92-1.53-1.29-2.34s-.91-1.8-1.26-2.74a21.27,21.27,0,0,1-.85-2.39,57.49,57.49,0,0,1-1.15-6,40,40,0,0,1-.29-5.89c0-.39-.08-.51-.52-.41-.6.13-1.22,0-1.83.1a10,10,0,0,1-2,.09c-.7,0-1.37.19-2.06.13-.24,0-.25.1-.25.26.05.87.08,1.74.13,2.6,0,.1.06.19.06.29,0,1.85,0,3.7,0,5.55a1.28,1.28,0,0,1-1.15,1.13c-.56.05-1.12.05-1.68.09a1.15,1.15,0,0,1-1.21-.58,1.73,1.73,0,0,1-1.79.8,7.81,7.81,0,0,1-1.37,0,1.51,1.51,0,0,1-1.22-1.41,8.83,8.83,0,0,0-.35-1.83c-.07-.34-.39-.24-.62-.23a8.15,8.15,0,0,1-1.78,0,1.16,1.16,0,0,1-.88-.89,25.94,25.94,0,0,1-.71-3.8c0-.21-.1-.25-.36-.25-.77,0-1.53.2-2.3.23A2.8,2.8,0,0,1,10.57,27c-.39-.2-.72-.43-.79-.86a7.84,7.84,0,0,1-.22-2.89A1.78,1.78,0,0,1,11.16,22c.83-.07,1.67-.17,2.51-.24.27,0,.2-.22.2-.36,0-1,0-2,0-3,0-1.21.25-1.7,1.65-1.81a3.78,3.78,0,0,1,1.3-.09c.29.07.19-.17.19-.28,0-.6,0-1.2,0-1.79,0-1,.43-1.67,1.15-1.83a6.36,6.36,0,0,1,1-.18c.71,0,1.49-.23,2.06.42.09.1.17.06.24,0a1.48,1.48,0,0,1,1.33-.62c.49,0,1-.09,1.47-.11a1.39,1.39,0,0,1,1.52,1.31c.23,1.53.46,3,.55,4.6.06,1.17.31,2.34.28,3.53,0,.25.14.45.4.36a7.53,7.53,0,0,1,2-.18c1.63-.11,3.26-.18,4.88-.18.48,0,.62-.32.91-.48a2.49,2.49,0,0,1,2.7.13c.23.14.41.27.69.15a.68.68,0,0,1,.25,0c2.74-.05,5.48,0,8.21-.1,3.44-.11,6.87-.06,10.31,0,2.2,0,4.41,0,6.62.09,1.1,0,2.2-.05,3.3.1a.52.52,0,0,0,.46-.15,2.27,2.27,0,0,1,2.86,0,1.79,1.79,0,0,0,1.09.35c1.37,0,2.73.08,4.1.24.58.07,1.2,0,1.81,0a1.45,1.45,0,0,1,.36,0c.64.14.64.15.64-.49a24.12,24.12,0,0,1,.34-3.49c.11-.75,0-1.52.2-2.25s.28-1.63.44-2.44a1.13,1.13,0,0,1,1-.94,5.63,5.63,0,0,1,2.79.26c.09,0,.22.07.25.14.22.55.52.28.81.08a1.56,1.56,0,0,1,1.13-.19c.5,0,1,.17,1.44.24a1.34,1.34,0,0,1,1.28,1.32c.07.74.07,1.48.07,2.21,0,.23,0,.29.33.29a4.79,4.79,0,0,1,2.27.39.79.79,0,0,1,.38.58,17.74,17.74,0,0,1,.16,3.92c0,.33.1.41.45.44a14.59,14.59,0,0,1,2.64.36c1.21.35,1.3,1.16,1.2,2a4.76,4.76,0,0,0-.07,1,1.87,1.87,0,0,1-2.1,2.11A22.3,22.3,0,0,1,90.78,27c-.25,0-.38,0-.36.26a10.29,10.29,0,0,1-.31,2.42,6,6,0,0,1-.56,1.82,1,1,0,0,1-1,.49A5.94,5.94,0,0,1,86.93,32c-.24-.06-.4,0-.44.26a19,19,0,0,0-.4,2.1,1.54,1.54,0,0,1-1.49,1.2c-.57,0-1.15,0-1.72,0a1.26,1.26,0,0,1-1.07-.83,1.89,1.89,0,0,1-2,.57,2.62,2.62,0,0,1-1.74-.42,1,1,0,0,1-.38-.68c-.09-1,0-2.06,0-3.08,0-.68.07-1.37.08-2.06,0-1.11.16-2.21.09-3.32,0-.2,0-.33-.31-.35-2-.1-3.93-.23-5.89-.35-.3,0-.33.12-.33.35,0,.76,0,1.52,0,2.27a39.61,39.61,0,0,1-.91,7.27c-.19.88-.41,1.75-.67,2.62A31.64,31.64,0,0,1,68,41.94a25.56,25.56,0,0,1-3.6,5.71c-.51.61-1.1,1.16-1.65,1.74a1,1,0,0,0-.37.8,5.79,5.79,0,0,1-.24,1.41,5.94,5.94,0,0,0-.12,2c-.23-.32-.57-.3-.93-.3-2.86,0-5.73,13.59-8.6,13.59s-5.52-13.59-8.28-13.58c-.7,0-.77,0-1.16-.78m14-8.81.1.09c.49-.36,1-.69,1.48-1.09a18.12,18.12,0,0,0,3.94-5A31.06,31.06,0,0,0,65.46,30a46.71,46.71,0,0,0,.84-4.7c0-.16.11-.44-.24-.41s-.85-.08-1.27-.09c-1.54,0-3.09,0-4.64-.06-2.36-.1-4.73,0-7.09-.09-.93,0-1.87,0-2.8.06-2,.08-4.08,0-6.12.07-1.69.1-3.4,0-5.09.09-.47,0-.5.2-.44.53s.21,1,.3,1.45c.24,1.21.39,2.45.72,3.63a32.09,32.09,0,0,0,2,5.66,19.92,19.92,0,0,0,4.68,6.53A8,8,0,0,0,48,43.78c-.26-.49-.49-.86-.66-1.26a6.6,6.6,0,0,1-.18-4.92,5.82,5.82,0,0,1,2.69-3.27A5.31,5.31,0,0,1,56,34.9a6.16,6.16,0,0,1,2.2,4.18,5.92,5.92,0,0,1-.55,3.38c-.21.41-.41.83-.66,1.23" transform="translate(-6.65 -2)"/><path class="cls-1" d="M-117.62-362.95" transform="translate(-6.65 -2)"/><path class="cls-1" d="M-117.62,478.94" transform="translate(-6.65 -2)"/><path class="cls-1" d="M477.66,443.61" transform="translate(-6.65 -2)"/><path class="cls-1" d="M477.66-398.28" transform="translate(-6.65 -2)"/><polygon class="cls-2" points="58.37 41.91 45.81 62.72 33.25 41.91 28.2 33.55 20.69 33.55 33.25 54.36 45.81 75.16 58.37 54.36 70.93 33.55 63.42 33.55 58.37 41.91"/><path class="cls-5" d="M125.31,22.23l-.71,5.9h-9.33l-4.49,31.3h-5.12l4.57-31.3h-8.7l.8-5.9Z" transform="translate(-6.65 -2)"/><path class="cls-5" d="M146.08,26.86l-2.74,18.81h-6.59L143,59.43h-5.52l-6.27-13.76h-1.31l-2,13.76h-5.63l5.08-37.09h2.18v-.11h13.34ZM140,29l-.47-.8-6.95-.11-1.15,7.18L131,38.49l7.74.06Z" transform="translate(-6.65 -2)"/><path class="cls-3" d="M169.46,36.31l-.83,6.75H155.68l-1.23,9.78h13.06l-.83,6.59H148.81l4.77-37.2h17.86l-.83,6.59h-13.1l-.95,7.49Z" transform="translate(-6.65 -2)"/><path class="cls-3" d="M181.77,34.67l6.87-12.44h5L183,42l2.78,17.43h-5.6l-1.51-9.51-5.16,9.51h-5.28l9.29-16.9-3.22-20.3h5.52Z" transform="translate(-6.65 -2)"/><path class="cls-3" d="M214.28,26.86l-2.74,18.81H198.08l-2,13.76h-5.64l5.08-37.09h2.19v-.11H211Zm-14.65,8.45-.47,3.18,7.74.06L208.21,29l-.48-.8-6.95-.11Z" transform="translate(-6.65 -2)"/><path class="cls-3" d="M233.74,36.31l-.84,6.75H220l-1.23,9.78h13.06L231,59.43H213.09l4.76-37.2h17.87l-.83,6.59h-13.1l-1,7.49Z" transform="translate(-6.65 -2)"/><path class="cls-3" d="M258.23,26.86l-2.74,18.81H248.9l6.23,13.76h-5.51l-6.28-13.76H242l-2,13.76h-5.64l5.08-37.09h2.19v-.11H255ZM252.16,29l-.48-.8-7-.11-1.15,7.18-.47,3.18,7.74.06Z" transform="translate(-6.65 -2)"/><path class="cls-3" d="M284,22.23l-.72,5.9H274l-4.49,31.3h-5.12l4.56-31.3h-8.69l.79-5.9Z" transform="translate(-6.65 -2)"/></svg>